# xmcd
#
# Track frame offsets: 
#        150
#        4072
#        16640
#        28654
#        48526
#        64234
#        84528
#        102170
#        120752
#        131462
#        146835
#        167227
#        190920
#
# Disc length: 2863 seconds
#
# Revision: 1
# Processed by: cddbd v1.5.2PL0 Copyright (c) Steve Scherf et al.
# Submitted via: ExactAudioCopy v1.0b1
#
DISCID=a40b2d0d
DTITLE=Pharoahe Monch - W.A.R.
DYEAR=2011
DGENRE=Hip-Hop
TTITLE0=The Warning (feat. Idris Elba)
TTITLE1=Calculated Armageddon
TTITLE2=Evolve
TTITLE3=W.A.R. (feat. Immortal Technique and Vernon Reid)
TTITLE4=Clap (One Day) (feat. Showtyme and DJ Boogie Blind)
TTITLE5=Black Hand Side (feat. Styles P and Phonte')
TTITLE6=Let My People Go
TTITLE7=Shine (feat. Mela Machinko)
TTITLE8=Haile Selassie Karate (feat. Mr. Porter)
TTITLE9=The Hitman
TTITLE10=Assassins (feat. Jean Grae and Royce Da 5'9')
TTITLE11=The Grand Illusion (Circa 1973) (feat. Citizen Cope)
TTITLE12=Still Standing (feat. Jill Scott)
EXTD=
EXTT0=
EXTT1=
EXTT2=
EXTT3=
EXTT4=
EXTT5=
EXTT6=
EXTT7=
EXTT8=
EXTT9=
EXTT10=
EXTT11=
EXTT12=
PLAYORDER=
